<?xml version="1.0" standalone="no"?>
<!DOCTYPE svg PUBLIC "-//W3C//DTD SVG 20010904//EN"
 "http://www.w3.org/TR/2001/REC-SVG-20010904/DTD/svg10.dtd">
<svg version="1.0" xmlns="http://www.w3.org/2000/svg"
 width="2136.000000pt" height="2136.000000pt" viewBox="0 0 2136.000000 2136.000000"
 preserveAspectRatio="xMidYMid meet">
<metadata>
Created by potrace 1.11, written by Peter Selinger 2001-2013
</metadata>
<g transform="translate(0.000000,2136.000000) scale(0.100000,-0.100000)"
fill="#000000" stroke="none">
<path d="M43 13818 c18 -29 917 -1467 1997 -3196 l1964 -3142 840 2 840 3
1318 2139 c799 1297 1317 2145 1313 2154 -3 8 -196 309 -428 668 -315 488
-425 650 -433 641 -6 -7 -438 -707 -959 -1557 -522 -850 -1101 -1794 -1288
-2098 -229 -372 -343 -549 -348 -540 -5 7 -696 1129 -1537 2493 l-1528 2480
-892 3 -893 2 34 -52z"/>
<path d="M7932 13847 c7 -13 884 -1451 1948 -3195 l1935 -3172 829 0 c658 0
827 3 823 13 -3 6 -878 1443 -1945 3192 l-1940 3180 -831 3 -832 2 13 -23z"/>
<path d="M14390 11759 c-740 -1161 -1344 -2117 -1344 -2124 2 -16 857 -1264
864 -1260 3 2 597 924 1320 2049 723 1125 1319 2045 1323 2043 5 -1 725 -1124
1601 -2495 l1591 -2491 807 -1 807 0 -97 154 c-53 84 -968 1522 -2032 3195
l-1935 3041 -780 0 -780 -1 -1345 -2110z"/>
<path d="M8245 9868 c-3 -7 -4 -258 -3 -558 l3 -545 598 -3 597 -2 0 560 0
560 -595 0 c-467 0 -597 -3 -600 -12z"/>
</g>
</svg>
